<?xml version="1.0" encoding="UTF-8" standalone="no"?>
<!DOCTYPE svg PUBLIC "-//W3C//DTD SVG 1.1//EN"
 "http://www.w3.org/Graphics/SVG/1.1/DTD/svg11.dtd">
<!-- Generated by graphviz version 2.40.1 (20161225.0304)
 -->
<!-- Title: dependencies Pages: 1 -->
<svg width="1352pt" height="284pt"
 viewBox="0.00 0.00 1352.00 284.00" xmlns="http://www.w3.org/2000/svg" xmlns:xlink="http://www.w3.org/1999/xlink">
<g id="graph0" class="graph" transform="scale(1 1) rotate(0) translate(4 280)">
<title>dependencies</title>
<polygon fill="#ffffff" stroke="transparent" points="-4,4 -4,-280 1348,-280 1348,4 -4,4"/>
<text text-anchor="start" x="651.0091" y="-42.4" font-family="sans-serif" font-weight="bold" font-size="14.00" fill="#000000">Legend</text>
<polygon fill="#ffffb3" stroke="transparent" points="438,-10 438,-30 458,-30 458,-10 438,-10"/>
<text text-anchor="start" x="461.629" y="-15.4" font-family="sans-serif" font-size="14.00" fill="#000000"> &#160;Declarations</text>
<polygon fill="#8dd3c7" stroke="transparent" points="551,-10 551,-30 571,-30 571,-10 551,-10"/>
<text text-anchor="start" x="574.7251" y="-15.4" font-family="sans-serif" font-size="14.00" fill="#000000"> &#160;Module</text>
<polygon fill="#80b1d3" stroke="transparent" points="637,-10 637,-30 657,-30 657,-10 637,-10"/>
<text text-anchor="start" x="660.7812" y="-15.4" font-family="sans-serif" font-size="14.00" fill="#000000"> &#160;Bootstrap</text>
<polygon fill="#fdb462" stroke="transparent" points="734,-10 734,-30 754,-30 754,-10 734,-10"/>
<text text-anchor="start" x="757.6732" y="-15.4" font-family="sans-serif" font-size="14.00" fill="#000000"> &#160;Providers</text>
<polygon fill="#fb8072" stroke="transparent" points="830,-10 830,-30 850,-30 850,-10 830,-10"/>
<text text-anchor="start" x="853.7258" y="-15.4" font-family="sans-serif" font-size="14.00" fill="#000000"> &#160;Exports</text>
<g id="clust1" class="cluster">
<title>cluster_AppModule</title>
<polygon fill="none" stroke="#000000" stroke-dasharray="1,5" points="8,-70 8,-268 1336,-268 1336,-70 8,-70"/>
</g>
<g id="clust2" class="cluster">
<title>cluster_AppModule_declarations</title>
<polygon fill="none" stroke="#000000" points="144,-78 144,-130 1328,-130 1328,-78 144,-78"/>
</g>
<g id="clust11" class="cluster">
<title>cluster_AppModule_imports</title>
<polygon fill="none" stroke="#000000" points="16,-78 16,-130 136,-130 136,-78 16,-78"/>
</g>
<g id="clust13" class="cluster">
<title>cluster_AppModule_bootstrap</title>
<polygon fill="none" stroke="#000000" points="561,-208 561,-260 685,-260 685,-208 561,-208"/>
</g>
<!-- AppComponent -->
<g id="node1" class="node">
<title>AppComponent</title>
<polygon fill="#ffffb3" stroke="#000000" points="1319.9399,-122 1214.0601,-122 1214.0601,-86 1319.9399,-86 1319.9399,-122"/>
<text text-anchor="middle" x="1267" y="-99.8" font-family="Times,serif" font-size="14.00" fill="#000000">AppComponent</text>
</g>
<!-- AppModule -->
<g id="node9" class="node">
<title>AppModule</title>
<polygon fill="#8dd3c7" stroke="#000000" points="664.6571,-187 661.6571,-191 640.6571,-191 637.6571,-187 581.3429,-187 581.3429,-151 664.6571,-151 664.6571,-187"/>
<text text-anchor="middle" x="623" y="-164.8" font-family="Times,serif" font-size="14.00" fill="#000000">AppModule</text>
</g>
<!-- AppComponent&#45;&gt;AppModule -->
<g id="edge1" class="edge">
<title>AppComponent&#45;&gt;AppModule</title>
<path fill="none" stroke="#000000" d="M1267,-122.0109C1267,-144.4852 1267,-180 1267,-180 1267,-180 674.7584,-180 674.7584,-180"/>
<polygon fill="#000000" stroke="#000000" points="674.7585,-176.5001 664.7584,-180 674.7584,-183.5001 674.7585,-176.5001"/>
</g>
<!-- EditorCKEditorComponent -->
<g id="node2" class="node">
<title>EditorCKEditorComponent</title>
<polygon fill="#ffffb3" stroke="#000000" points="1196.2646,-122 1025.7354,-122 1025.7354,-86 1196.2646,-86 1196.2646,-122"/>
<text text-anchor="middle" x="1111" y="-99.8" font-family="Times,serif" font-size="14.00" fill="#000000">EditorCKEditorComponent</text>
</g>
<!-- EditorCKEditorComponent&#45;&gt;AppModule -->
<g id="edge2" class="edge">
<title>EditorCKEditorComponent&#45;&gt;AppModule</title>
<path fill="none" stroke="#000000" d="M1111,-122.1289C1111,-142.5724 1111,-173 1111,-173 1111,-173 675.029,-173 675.029,-173"/>
<polygon fill="#000000" stroke="#000000" points="675.029,-169.5001 665.029,-173 675.0289,-176.5001 675.029,-169.5001"/>
</g>
<!-- EditorNgxQuillComponent -->
<g id="node3" class="node">
<title>EditorNgxQuillComponent</title>
<polygon fill="#ffffb3" stroke="#000000" points="1007.7119,-122 838.2881,-122 838.2881,-86 1007.7119,-86 1007.7119,-122"/>
<text text-anchor="middle" x="923" y="-99.8" font-family="Times,serif" font-size="14.00" fill="#000000">EditorNgxQuillComponent</text>
</g>
<!-- EditorNgxQuillComponent&#45;&gt;AppModule -->
<g id="edge3" class="edge">
<title>EditorNgxQuillComponent&#45;&gt;AppModule</title>
<path fill="none" stroke="#000000" d="M923,-122.2667C923,-140.5552 923,-166 923,-166 923,-166 674.7137,-166 674.7137,-166"/>
<polygon fill="#000000" stroke="#000000" points="674.7137,-162.5001 664.7137,-166 674.7137,-169.5001 674.7137,-162.5001"/>
</g>
<!-- FooterComponent -->
<g id="node4" class="node">
<title>FooterComponent</title>
<polygon fill="#ffffb3" stroke="#000000" points="819.8809,-122 702.1191,-122 702.1191,-86 819.8809,-86 819.8809,-122"/>
<text text-anchor="middle" x="761" y="-99.8" font-family="Times,serif" font-size="14.00" fill="#000000">FooterComponent</text>
</g>
<!-- FooterComponent&#45;&gt;AppModule -->
<g id="edge4" class="edge">
<title>FooterComponent&#45;&gt;AppModule</title>
<path fill="none" stroke="#000000" d="M761,-122.0091C761,-138.0494 761,-159 761,-159 761,-159 674.779,-159 674.779,-159"/>
<polygon fill="#000000" stroke="#000000" points="674.7791,-155.5001 664.779,-159 674.779,-162.5001 674.7791,-155.5001"/>
</g>
<!-- HeaderComponent -->
<g id="node5" class="node">
<title>HeaderComponent</title>
<polygon fill="#ffffb3" stroke="#000000" points="683.7437,-122 562.2563,-122 562.2563,-86 683.7437,-86 683.7437,-122"/>
<text text-anchor="middle" x="623" y="-99.8" font-family="Times,serif" font-size="14.00" fill="#000000">HeaderComponent</text>
</g>
<!-- HeaderComponent&#45;&gt;AppModule -->
<g id="edge5" class="edge">
<title>HeaderComponent&#45;&gt;AppModule</title>
<path fill="none" stroke="#000000" d="M623,-122.1061C623,-122.1061 623,-140.991 623,-140.991"/>
<polygon fill="#000000" stroke="#000000" points="619.5001,-140.9909 623,-150.991 626.5001,-140.991 619.5001,-140.9909"/>
</g>
<!-- HomeComponent -->
<g id="node6" class="node">
<title>HomeComponent</title>
<polygon fill="#ffffb3" stroke="#000000" points="543.5451,-122 428.4549,-122 428.4549,-86 543.5451,-86 543.5451,-122"/>
<text text-anchor="middle" x="486" y="-99.8" font-family="Times,serif" font-size="14.00" fill="#000000">HomeComponent</text>
</g>
<!-- HomeComponent&#45;&gt;AppModule -->
<g id="edge6" class="edge">
<title>HomeComponent&#45;&gt;AppModule</title>
<path fill="none" stroke="#000000" d="M486,-122.0091C486,-138.0494 486,-159 486,-159 486,-159 571.1511,-159 571.1511,-159"/>
<polygon fill="#000000" stroke="#000000" points="571.1511,-162.5001 581.1511,-159 571.151,-155.5001 571.1511,-162.5001"/>
</g>
<!-- ModalComponent -->
<g id="node7" class="node">
<title>ModalComponent</title>
<polygon fill="#ffffb3" stroke="#000000" points="409.8823,-122 292.1177,-122 292.1177,-86 409.8823,-86 409.8823,-122"/>
<text text-anchor="middle" x="351" y="-99.8" font-family="Times,serif" font-size="14.00" fill="#000000">ModalComponent</text>
</g>
<!-- ModalComponent&#45;&gt;AppModule -->
<g id="edge7" class="edge">
<title>ModalComponent&#45;&gt;AppModule</title>
<path fill="none" stroke="#000000" d="M351,-122.2667C351,-140.5552 351,-166 351,-166 351,-166 571.0961,-166 571.0961,-166"/>
<polygon fill="#000000" stroke="#000000" points="571.0961,-169.5001 581.0961,-166 571.0961,-162.5001 571.0961,-169.5001"/>
</g>
<!-- NavbarComponent -->
<g id="node8" class="node">
<title>NavbarComponent</title>
<polygon fill="#ffffb3" stroke="#000000" points="274.0297,-122 151.9703,-122 151.9703,-86 274.0297,-86 274.0297,-122"/>
<text text-anchor="middle" x="213" y="-99.8" font-family="Times,serif" font-size="14.00" fill="#000000">NavbarComponent</text>
</g>
<!-- NavbarComponent&#45;&gt;AppModule -->
<g id="edge8" class="edge">
<title>NavbarComponent&#45;&gt;AppModule</title>
<path fill="none" stroke="#000000" d="M213,-122.1289C213,-142.5724 213,-173 213,-173 213,-173 571.0496,-173 571.0496,-173"/>
<polygon fill="#000000" stroke="#000000" points="571.0496,-176.5001 581.0496,-173 571.0496,-169.5001 571.0496,-176.5001"/>
</g>
<!-- AppComponent  -->
<g id="node11" class="node">
<title>AppComponent </title>
<polygon fill="#80b1d3" stroke="#000000" points="677.439,-252 568.561,-252 568.561,-216 677.439,-216 677.439,-252"/>
<text text-anchor="middle" x="623" y="-229.8" font-family="Times,serif" font-size="14.00" fill="#000000">AppComponent </text>
</g>
<!-- AppModule&#45;&gt;AppComponent  -->
<g id="edge10" class="edge">
<title>AppModule&#45;&gt;AppComponent </title>
<path fill="none" stroke="#000000" stroke-dasharray="1,5" d="M623,-187.1061C623,-187.1061 623,-205.991 623,-205.991"/>
<polygon fill="#000000" stroke="#000000" points="619.5001,-205.9909 623,-215.991 626.5001,-205.991 619.5001,-205.9909"/>
</g>
<!-- RoutingModule -->
<g id="node10" class="node">
<title>RoutingModule</title>
<polygon fill="#8dd3c7" stroke="#000000" points="128.1681,-122 125.1681,-126 104.1681,-126 101.1681,-122 23.8319,-122 23.8319,-86 128.1681,-86 128.1681,-122"/>
<text text-anchor="middle" x="76" y="-99.8" font-family="Times,serif" font-size="14.00" fill="#000000">RoutingModule</text>
</g>
<!-- RoutingModule&#45;&gt;AppModule -->
<g id="edge9" class="edge">
<title>RoutingModule&#45;&gt;AppModule</title>
<path fill="none" stroke="#000000" d="M76,-122.0109C76,-144.4852 76,-180 76,-180 76,-180 570.9861,-180 570.9861,-180"/>
<polygon fill="#000000" stroke="#000000" points="570.9861,-183.5001 580.9861,-180 570.9861,-176.5001 570.9861,-183.5001"/>
</g>
</g>
</svg>
